[URL=http://www.piczend.com/image/1358610752_vlcsnap-2013-01-18-22h14m53s213 - copy.png][IMG]http://cdn.piczend.com/images/VTUfX7sd/thumbnail/1358610752_vlcsnap-2013-01-18-22h14m53s213%20-%20copy.png[/IMG][/URL]
[URL=http://www.piczend.com/image/1358610752_vlcsnap-2013-01-18-22h15m10s133.png][IMG]http://cdn.piczend.com/images/wJZRqnco/thumbnail/1358610752_vlcsnap-2013-01-18-22h15m10s133.png[/IMG][/URL]
[URL=http://www.piczend.com/image/1358610748_vlcsnap-2013-01-18-22h15m16s188.png][IMG]http://cdn.piczend.com/images/juXshrg8/thumbnail/1358610748_vlcsnap-2013-01-18-22h15m16s188.png[/IMG][/URL]
[URL=http://www.piczend.com/image/1358610749_vlcsnap-2013-01-18-22h15m20s228.png][IMG]http://cdn.piczend.com/images/LhZshvoF/thumbnail/1358610749_vlcsnap-2013-01-18-22h15m20s228.png[/IMG][/URL]
[URL=http://www.piczend.com/image/1358610750_vlcsnap-2013-01-18-22h15m25s24.png][IMG]http://cdn.piczend.com/images/k9CzCg5T/thumbnail/1358610750_vlcsnap-2013-01-18-22h15m25s24.png[/IMG][/URL]

Video
ID : 0
Format : MPEG-4 Visual
Format profile : Advanced Simple@L5
Format settings, BVOP : 2
Format settings, QPel : No
Format settings, GMC : No warppoints
Format settings, Matrix : Default (H.263)
Muxing mode : Packed bitstream
Codec ID : XVID
Codec ID/Hint : XviD
Duration : 1h 47mn
Bit rate : 1 050 Kbps
Width : 720 pixels
Height : 304 pixels
Display aspect ratio : 2.35:1
Frame rate : 23.976 fps
Color space : YUV
Chroma subsampling : 4:2:0
Bit depth : 8 bits
Scan type : Progressive
Compression mode : Lossy
Bits/(Pixel*Frame) : 0.200
Stream size : 807 MiB (73%)
Writing library : XviD 1.2.1 (UTC 2008-12-04)

Audio
ID : 1
Format : AC-3
Format/Info : Audio Coding 3
Mode extension : CM (complete main)
Format settings, Endianness : Big
Codec ID : 2000
Duration : 1h 47mn
Bit rate mode : Constant
Bit rate : 384 Kbps
Channel(s) : 6 channels
Channel positions : Front: L C R, Side: L R, LFE
Sampling rate : 48.0 KHz
Bit depth : 16 bits
Compression mode : Lossy
Stream size : 295 MiB (27%)
Alignment : Aligned on interleaves
Interleave, duration : 32 ms (0.77 video frame)

